<?xml version="1.0" encoding="utf-8"?>
<!-- Generator: Adobe Illustrator 26.3.1, SVG Export Plug-In . SVG Version: 6.00 Build 0)  -->
<svg version="1.1" id="图层_1" xmlns="http://www.w3.org/2000/svg" xmlns:xlink="http://www.w3.org/1999/xlink" x="0px" y="0px"
	 viewBox="0 0 56 56" style="enable-background:new 0 0 56 56;" xml:space="preserve">
<style type="text/css">
	.st0{fill:#B13624;}
	.st1{display:none;}
	.st2{display:inline;fill:#B13624;}
	.st3{fill:#FFFFFF;}
</style>
<g>
	<rect id="canvas_background" x="-1" y="-1" class="st0" width="58" height="58"/>
	<g id="canvasGrid" class="st1">
		<rect y="0" class="st2" width="56" height="56"/>
	</g>
</g>
<g>
	<path class="st3" d="M28,1.4C13.3,1.4,1.4,13.3,1.4,28s11.9,26.6,26.5,26.6c14.7,0,26.6-11.9,26.6-26.6C54.6,13.3,42.7,1.4,28,1.4z
		 M28,53.2C14.1,53.2,2.8,41.9,2.8,28S14.1,2.8,28,2.8S53.2,14.1,53.2,28S41.9,53.2,28,53.2z"/>
	<path class="st3" d="M8.4,18.1c0.1,0.1,0.2,0.3,0.3,0.5l0,0C9,19,9,19.1,9.3,19.5c0.3,0.5,0.4,0.8,0.6,1.3c0,0.1-0.1,0.2-0.1,0.3
		c0.1,0.3,0.4-0.1,0.4-0.2s0-0.3,0-0.4C10,20,9.8,19.7,9.6,19.3c-0.2-0.3-0.4-0.7-0.6-1c0-0.1-0.1-0.2-0.2-0.3
		c-0.2-0.2-0.3-0.5-0.3-0.7c0.1-0.1,0.2-0.1,0.3-0.1s0.3,0.2,0.3,0.5c0,0.1,0.2,0.4,0.4,0.4c0,0,0-0.2,0.1-0.3
		c0.3-0.1,0.1,0.6,0.2,0.8c0,0.1,0.2,0.3,0.3,0.3c0,0,0.1,0,0.1-0.1s0-0.2,0-0.3c0.2,0,0.2,0.5,0.3,0.5c0.1,0.1,0.3,0.1,0.3-0.1
		c0-0.1-0.1-0.3-0.2-0.5c0-0.2,0-0.3-0.1-0.4c0-0.1-0.2-0.1-0.2-0.3c-0.1-0.2-0.1-0.6,0-0.7s0.2-0.2,0.3-0.2c0.2,0,0.2,0.3,0.2,0.6
		c0,0.1,0,0.2,0,0.3c0,0.1,0.1,0.1,0.3,0c0,0,0.1-0.1,0.2-0.3c0-0.1-0.1-0.3-0.2-0.6H11c-0.1-0.1-0.2-0.5-0.4-0.5s-0.4,0.1-0.6,0.2
		c-0.1,0.1-0.1,0.4-0.2,0.5c0,0-0.1-0.2-0.2-0.3c0-0.1,0-0.2,0-0.2c-0.1-0.1-0.2,0-0.2,0c-0.2,0-0.3-0.1-0.3-0.3
		c0-0.1,0-0.4-0.1-0.4c0-0.1-0.1-0.1-0.1-0.1c-0.1,0-0.2-0.1-0.2-0.1c-0.1,0-0.1,0.1-0.2,0.1c0,0.2,0,0.4,0,0.6
		c0,0.1-0.2,0.3-0.2,0.4c-0.1,0.1,0,0.4,0,0.6C8,17.5,8.2,17.8,8.4,18.1z M8.7,16.6L8.7,16.6C8.8,16.6,8.8,16.6,8.7,16.6
		c0.1,0.1,0.1,0.1,0.1,0.2l0,0C8.7,16.8,8.7,16.8,8.7,16.6C8.7,16.7,8.7,16.6,8.7,16.6z"/>
	<path class="st3" d="M11,18.2c-0.2,0.1-0.3,0.2-0.3,0.2s0,0.1,0.1,0.1c0,0,0.1,0,0.2,0c0,0,0,0,0.1,0c0,0,0.3,0,0.5,0.1l0.2,0.1
		c0.1,0,0.1,0,0.2,0c0,0,0.1-0.1,0.1-0.2c0,0-0.1-0.1-0.1-0.3c-0.1-0.1-0.1-0.2-0.2-0.3c0,0-0.2,0-0.3,0s-0.2,0-0.3,0
		C11.1,18.1,11.1,18.2,11,18.2z"/>
	<path class="st3" d="M6.9,15.8c0.2,0.4,0.2,0.5,0.3,0.4c0.1,0,0.1-0.5,0.2-0.6l0,0c0.1-0.1,0.1-0.1,0.1-0.2c0,0,0-0.1,0-0.2H7.4
		l0,0c-0.1,0-0.2-0.1-0.3-0.2H7c-0.1,0-0.1,0-0.2,0c-0.1,0.1-0.1,0.1-0.1,0.2c-0.1,0.1-0.2,0.1-0.2,0.3c0,0.1,0.1,0.3,0.2,0.4
		C6.7,15.9,6.8,15.7,6.9,15.8z"/>
	<path class="st3" d="M7.4,16.7c0,0.1-0.1,0.2-0.1,0.3c0,0.2,0,0.4,0,0.6c0,0.1,0,0.2,0.1,0.2c0.1,0.1,0.1,0.1,0.1,0.1
		c0.1-0.1,0.2-0.4,0.2-0.5s0.2-0.4,0.1-0.6c0.1-0.4,0.1-0.7,0.2-1c0-0.1-0.1-0.2-0.2-0.2c0,0-0.1,0-0.1,0.2c-0.1,0.1,0,0.3-0.1,0.5
		C7.6,16.3,7.5,16.4,7.4,16.7C7.5,16.6,7.4,16.7,7.4,16.7z"/>
	<path class="st3" d="M15.9,8.4c0.1,0.1,0.2,0.2,0.2,0.4C16,9.1,16,9.3,16.2,9.4l0.2-0.8c0.2-0.3,0.2-0.4-0.1-0.7
		c0-0.1-0.2-0.1-0.4-0.1C15.7,7.9,15.5,8,15.3,8c0,0.1,0,0.1,0,0.2C15.4,8.3,15.7,8.3,15.9,8.4C15.8,8.4,15.9,8.4,15.9,8.4z"/>
	<path class="st3" d="M12.8,10.5c0.3,0.3,0.6,0.5,0.7,0.8v0.6c0,0.2,0.1,0.6,0.5,0.8c0.1,0.1,0.1,0.2,0.2,0.3l0,0
		c0.2,0.2,0.6,0.1,0.8,0c0,0,0.1-0.1,0.1-0.3v-0.3c0,0,0-0.1,0-0.2c-0.2-0.3-0.5-0.7-0.7-0.8c-0.1,0-0.1-0.1-0.2-0.2
		c-0.1-0.1-0.1-0.1-0.2-0.3c0-0.3,0.1-0.5,0.2-0.7c0-0.1,0-0.1,0.1-0.1c0,0,0.1,0,0.2,0.1c0.1,0.1,0.1,0.6,0.1,0.7
		c0,0,0.1,0.1,0.2,0.3c0.1,0.2,0.2,0.3,0.4,0.4l0.1,0.1c0.3,0.2,0.4-0.2,0.5-0.6c0-0.2,0-0.5,0-0.5c-0.1-0.2-0.3-0.4-0.4-0.6
		c-0.1-0.1,0.1-0.2,0.6,0.1c0.1,0.1,0.2,0.2,0.4,0.4c0.2,0.3,0.8,0.9,0.8,1.1c0,0.3,0.1,0.8,0.5,0.8s0-0.7-0.1-0.8
		c-0.4-0.5-0.8-1.2-1.3-1.6c-0.1-0.1-0.2-0.2-0.2-0.2c-0.1-0.1-0.2-0.2-0.4-0.3c-0.1,0-0.2,0-0.3,0H15c-0.1,0-0.2,0.1-0.3,0.2
		c-0.1,0.1-0.2,0.1-0.5,0.1h-0.1c-0.1,0-0.2,0.2-0.3,0.3c-0.1,0-0.1,0.4-0.2,0.6c-0.1,0-0.1-0.1-0.3-0.3c-0.3-0.2-0.7-0.4-0.8-0.7
		c0,0,0-0.1,0-0.2c0-0.1-0.2-0.2-0.3-0.2c0,0.1,0.1,0.2,0.1,0.4C12.3,10,12.7,10.4,12.8,10.5z M15.1,10.6L15.1,10.6
		c0.1,0,0.1,0.1,0.1,0.1s0,0.3-0.1,0.2l0,0C15.1,10.9,15,10.8,15.1,10.6z M14.1,11.8C14.1,11.8,14.2,11.9,14.1,11.8
		c0.1,0.1,0.2,0.2,0.2,0.2c0.1,0.1,0.2,0.3,0.1,0.4c0,0-0.1,0-0.2,0c-0.1,0-0.1-0.1-0.1-0.2c0,0-0.1-0.1-0.1-0.2
		C14,12,14.1,11.9,14.1,11.8z"/>
	<path class="st3" d="M21.8,9.9c0.1,0,0.3,0,0.4,0s0.3-0.1,0.5-0.3C23,9.2,23.2,9,23.4,8.5c0.3-0.1,1.5-0.1,1.5,0.1v0.1
		c0,0.1,0.1,0.1,0.2,0.1c0.3,0,0.6-0.3,0.6-0.4c-0.1-0.1-0.2-0.1-0.6-0.2C24.9,8.2,24.4,8,24,8c-0.2,0,0.1-0.4,0.3-0.6
		c0,0,0-0.1,0-0.2c-0.1,0-0.1,0-0.1,0C24,7,23.7,7.1,23.7,7.3c0,0.1,0,0.2,0,0.4c0,0.1,0,0.1,0,0.2S23.4,8.1,23.3,8
		c-0.1-0.1,0-0.3,0-0.5s0.7-0.7,0-1.4c0-0.1,0-0.1-0.1-0.1s-0.1,0.2,0,0.4c0.1,0.1,0.1,0.5-0.1,0.4c-0.1-0.1,0-0.2,0-0.3
		c0-0.1-0.2-0.1-0.2-0.2S23,6,23,5.8s-0.2,0-0.3,0c0.1,0,0.1-0.1,0.2-0.2C23.1,5.2,23.3,5,23.4,5c0.5-0.1,0.2-0.6,0-0.7
		c-0.2,0-0.5,0.1-0.5,0.2s-0.2,0.1-0.3,0.2c-0.1,0.1-0.2,0.2-0.3,0.2C22.1,5,22,5.1,21.9,5.1s-0.5-0.3-0.5,0c0,0.1,0,0.6,0.1,0.7
		c0,0,0.3,0.3,0.4,0.1c0-0.1,0.2-0.2,0.3-0.4c0.1-0.2,0.3-0.4,0.4-0.4s0,0.1-0.1,0.2c0,0.1-0.1,0.3-0.2,0.5c0,0.1,0,0.2,0,0.2l0,0
		c0,0.1,0,0.1,0,0.2l0,0c0.1,0.1,0.3,0,0.3,0.1s-0.2,0.1-0.3,0.2c0,0-0.1,0.1-0.1,0.2c0,0,0,0,0.1,0s0.3,0.1,0.4,0.1
		c0.1,0.1-0.1,0.3-0.3,0.3c0,0,0,0-0.1,0.1C22.1,7.6,21.8,8,22,8h0.3c0.2,0,0.3-0.1,0.5-0.1c0.1-0.1,0.1,0.2,0,0.2
		c-0.2,0.1-0.4,0.1-0.6,0.2c-0.3,0.1-0.5,0.2-0.6,0.4c-0.1,0.1-0.2,0.3-0.3,0.5C21.3,9.3,21.6,9.8,21.8,9.9z M22.3,8.8L22.3,8.8
		c0.2,0,0.3-0.1,0.5-0.1c0.1,0.1,0,0.4-0.2,0.6c-0.1,0.1-0.1,0.1-0.2,0.2c-0.1,0-0.2,0.1-0.3,0.1c-0.1,0-0.1,0-0.1-0.2
		C21.7,9.2,22.1,8.9,22.3,8.8z"/>
	<path class="st3" d="M30.1,8.3c0,0,0.2,0,0.3-0.2C30.5,8,30.7,8,30.7,7.8c0.1-0.2,0.1-0.4,0.2-0.5C31,7.1,31.5,6.9,31.8,7
		c0.1,0,0,0.2-0.1,0.4c-0.2,0.2-0.6,0.3-0.7,0.4c0,0.2-0.2,0.3-0.2,0.4c0,0.3,0.5,0,0.6,0c0.1,0.1,0,0.3,0.3,0.3c0,0,0-0.1,0.2-0.2
		C32,8.2,32.1,8.1,32.1,8c0-0.2-0.1-0.4-0.1-0.4c0.3-0.3,0.6-0.4,1-0.6c0.1-0.1,0.3-0.1,0.5-0.2c0.1-0.1,0.3,0,0.5,0
		c0.1,0,0.1,0,0.2,0c0,0,0.1,0.1,0.2,0.2c0.1,0.1,0.2,0,0.3-0.1c0,0,0.1-0.1,0.2-0.1c0.1-0.1,0.3,0,0.4,0c0,0,0.1-0.1,0.1-0.2
		s-0.1-0.3-0.2-0.4c0,0-0.1,0-0.3,0s-0.5,0-0.7,0.1c-0.4,0-0.8,0.1-0.9,0.3c0,0.1-0.5,0.2-0.7,0.2c0,0,0-0.1,0.1-0.2
		s0.2-0.1,0.2-0.1s0.5-0.2,0.3-0.4C33,6,33,5.9,32.9,5.7c-0.1-0.2-0.3,0.2-0.5,0.4c-0.1,0.1-0.7,0.2-0.7,0.2c-0.1,0-0.4,0.2-0.5,0.2
		c0,0,0-0.1,0-0.3c0-0.1,0.1-0.2,0.2-0.3c0-0.2,0.1-0.4,0-0.5c-0.2,0-0.3,0.3-0.4,0.5c0,0.1-0.2,0.2-0.3,0.4
		c-0.1,0.1-0.3,0.7-0.3,0.9c0,0.1-0.1,0.2-0.1,0.3c0,0.1-0.2,0.2-0.4,0.4C29.9,8.1,30,8.3,30.1,8.3z"/>
	<path class="st3" d="M34,8.2l-0.3,0.9c0,0.2-0.3,0.3-0.5,0.4c-0.1,0-0.1,0.1,0.1,0.2c0.1,0,0.7-0.1,0.8-0.2c0-0.1,0-0.3,0.2-0.6
		c0.1-0.2,0.2-0.9,0.4-1.2c0.1-0.1,0.2-0.2,0.4-0.3c0.1-0.1,0.2-0.3,0.1-0.4c0,0-0.1,0-0.1,0c-0.3,0-0.7,0.2-1,0.2H34
		c-0.2,0-0.5,0-0.7-0.1S32.8,7.4,33,7.6C33,7.8,33.1,8,33.2,8c0.2-0.1,0.6-0.3,0.8-0.2l0,0c0.1,0.1,0,0.1,0,0.2
		C34.1,8.1,34,8.1,34,8.2z"/>
	<path class="st3" d="M41.6,10.5c0.1,0,0.2,0,0.2,0l0.1-0.1c0.1-0.1,0.1-0.1,0.1-0.3c0.1-0.2,0.3-0.6,0.2-0.7c0,0-0.2,0-0.2,0.1
		l-0.1,0.1c0,0,0,0-0.1,0.1c0,0.1-0.2,0.4-0.1,0.5c0.1,0.1-0.1,0.3-0.1,0.4C41.5,10.3,41.5,10.4,41.6,10.5z"/>
	<path class="st3" d="M42.4,10.2c0.1,0.1,0.2,0.1,0.2,0.1c0.2,0,0.3,0,0.6,0.2c0.1,0.1-0.3,0.2-0.5,0.2c-0.1,0-0.1,0-0.1,0
		s0,0,0,0.1s0.1,0.1,0.2,0.1h0.5c0.1,0,0.2-0.1,0.4-0.1c0.3,0.2,1,0,1-0.2l-0.1-0.3c0-0.1-0.3-0.2-0.5-0.2c-0.1-0.1-0.3,0-0.4,0
		c-0.1,0-0.2-0.1-0.4-0.2c-0.3,0-0.5-0.2-0.5-0.3s0-0.3,0-0.3c-0.1,0-0.1,0-0.2,0.1c0,0-0.1,0-0.1,0.1c0,0,0,0.1,0,0.2
		C42.4,9.9,42.3,10.2,42.4,10.2z"/>
	<path class="st3" d="M39.9,13.2c0.5,0.1,0.5,0,0.6-0.1s0.1-0.1,0.1-0.2c0-0.1,0.2,0.1,0.4,0.1c0.1-0.1,0.3-0.1,0.2-0.2
		c-0.1-0.1-0.3-0.2-0.4-0.4c0-0.1-0.1-0.5,0.1-0.6c0.2-0.2,0.6-0.2,0.9-0.2c0.2,0,0.3,0,0.5,0c0.1,0,0.2-0.1,0.3-0.1l0,0
		c0.1,0,0.4,0,0.2-0.2c-0.1,0-0.1-0.1-0.2-0.1l-0.1-0.1c-0.1-0.1-0.3,0-0.3-0.1s-0.1-0.1-0.2-0.1h-0.1c-0.1,0-0.2,0-0.3-0.1
		c-0.4-0.1-0.8-0.2-1.2-0.6c0-0.1-0.1-0.2-0.1-0.2c-0.1,0-0.1,0-0.3,0s-0.3,0.4-0.2,0.5s0.1,0.2,0.2,0.3c0.1,0.1,0.2,0,0.3,0
		l0.4,0.3c0.2,0.1,1,0.3,0.8,0.3c-0.1,0-0.3,0.1-0.4,0.1c-0.1,0-0.3,0-0.4,0c-0.2,0-0.3,0.5-0.4,0.6c-0.2,0.2-0.5-0.1-0.7,0
		c0,0,0,0.1,0,0.3c0.1,0.1,0.2,0.2,0.3,0.3s0,0.2-0.2,0.2c-0.1,0-0.3-0.2-0.4-0.3c-0.1-0.1-0.3,0.5-0.2,0.6
		C39.4,13.2,39.7,13.2,39.9,13.2z"/>
	<path class="st3" d="M45.8,17.2c0.1,0,0.3,0.1,0.4,0c0,0,0.1-0.1,0.2-0.1c0.2-0.2,0-0.5,0.2-0.6c0,0,0.2-0.2,0.2-0.3
		c0.1-0.2-0.1-0.4-0.3-0.4c-0.1,0-0.2-0.1-0.4,0c-0.1,0.2-0.1,0.3,0,0.5c0,0.1,0,0.2,0,0.3c0,0.2-0.2,0.2-0.3,0.2s-0.2,0-0.2,0
		C45.5,17.1,45.6,17.2,45.8,17.2z"/>
	<path class="st3" d="M45.7,20c0,0.4,0,0.8,0.2,1.1c0.1,0.2,0.4,0.3,0.7,0.3s0.2-0.3,0.4-0.5c0,0,0.1-0.1,0.1-0.2
		c0.1-0.1,0.1-0.2,0.2-0.3c-0.1-0.1-0.3,0-0.4,0.1c-0.1,0-0.3,0.1-0.5-0.1c-0.2-0.3-0.2-0.6-0.2-0.9s-0.1-0.5-0.1-0.7
		c0.1,0,0.2,0,0.4,0.1c0.1,0,0.2,0,0.3,0s0.2,0.1,0.4,0.2c0.1,0,0.3,0,0.4-0.2c0,0,0-0.1,0-0.2v-0.1c-0.1-0.1-0.5-0.3-0.4-0.4
		c0.1,0,0.2-0.1,0.3-0.1l0,0c0.1,0,0.1-0.1,0.1-0.1c0-0.1-0.1-0.1-0.1-0.2c-0.1,0-0.2-0.1-0.3-0.1s-0.3-0.2-0.4,0v0.1V18
		c0,0.1,0.1,0.2,0,0.2c-0.2,0-0.4-0.1-0.6-0.2c-0.3-0.1-0.2,0.3-0.2,0.3c0.1,0.1,0.4,0.1,0.3,0.2c-0.2,0.1-0.5,0-0.7,0
		c-0.1,0-0.2,0.1-0.2,0.2s0.1,0.3,0.1,0.5C45.7,19.5,45.7,19.8,45.7,20z"/>
	<path class="st3" d="M47.6,17.1c0.1,0,0.2,0,0.3,0.1c0.1,0,0.1,0.1,0.2,0.1c0.1,0.1,0.4,0,0.5,0.1c0.4,0.4,0.1,0.2-0.1,0.4
		c-0.1,0.1,0.1,0.2,0.2,0.2c0.1,0,0.3,0.1,0.4,0.1c0.2,0,0.3,0.1,0.5,0.1s0-0.7-0.1-1c-0.1,0-0.2,0-0.3-0.1h-0.1
		c-0.1,0-0.3-0.1-0.5-0.2c-0.3,0-0.6-0.4-0.8-0.4h-0.1c-0.2,0.1-0.2,0.2-0.2,0.3C47.4,17.1,47.5,17.1,47.6,17.1z"/>
	<path class="st3" d="M44.1,17.7c-0.2,0.2-0.3,0.5-0.2,0.5s0.3-0.1,0.5-0.3c0.2-0.2,0.4-0.1,0.7-0.5c0-0.1,0.1-0.3,0.2-0.4
		c0.1-0.3,0.1-0.4,0-0.5c-0.1,0-0.1,0.2-0.3,0.4c-0.1,0.1-0.4,0.4-0.6,0.5C44.3,17.6,44.2,17.7,44.1,17.7z"/>
	<path class="st3" d="M48.9,16.9C49,17,49,17,48.9,16.9c0.3,0.1,0.4,0.2,0.6,0c0.1,0-0.1-0.5,0-0.8c0-0.1-0.2-0.1-0.3,0
		c0,0-0.1,0-0.2,0c0,0,0,0,0,0.1s0,0.2-0.1,0.2c-0.1,0.1-0.2,0.2-0.3,0.2C48.5,16.9,48.8,16.9,48.9,16.9z"/>
	<path class="st3" d="M14,17.7c-0.8,1.1-1.5,2.2-2,3.5c-0.9,2.1-1.4,4.4-1.4,6.8c0,2.5,0.5,4.7,1.4,6.8c0.5,1.3,1.2,2.4,2,3.5
		c0.8,1.2,1.9,2.2,3,3.2c0.9,0.7,1.8,1.3,2.8,1.9h0.1c0.4,0.2,0.8,0.4,1.3,0.6c0.5,0.2,0.9,0.4,1.4,0.5c0.9,0.2,1.7,0.5,2.6,0.6
		s1.8,0.2,2.7,0.2c1,0,1.9-0.1,2.8-0.2c0.9-0.1,1.8-0.4,2.6-0.6c0.5-0.2,1-0.4,1.4-0.5c0.4-0.2,0.8-0.4,1.3-0.6c0,0,0.1,0,0.1-0.1
		c1-0.5,2-1.2,2.8-1.9s1.5-1.4,2.2-2.2c1.1-1.3,2-2.8,2.7-4.4c0.1-0.2,0.1-0.4,0.2-0.5c0.7-2,1.2-4,1.2-6.3c0-2.2-0.4-4.3-1.2-6.2
		c-0.1-0.2-0.1-0.3-0.2-0.5c-0.7-1.6-1.6-3.1-2.7-4.5c-0.7-0.8-1.4-1.5-2.2-2.1c-0.9-0.7-1.8-1.4-2.8-1.9H36
		c-0.4-0.2-0.8-0.4-1.3-0.6c-0.5-0.2-0.9-0.4-1.4-0.6c-0.8-0.3-1.7-0.5-2.6-0.6c-0.9-0.2-1.8-0.2-2.8-0.2c-0.9,0-1.9,0-2.7,0.2
		c-0.9,0.2-1.8,0.4-2.6,0.7c-0.5,0.2-0.9,0.3-1.4,0.5c-0.4,0.2-0.8,0.4-1.3,0.6c-0.1,0.1-0.1,0.1-0.1,0.1c-1,0.5-1.9,1.2-2.8,1.9
		C15.9,15.5,14.9,16.5,14,17.7z M11.4,26.8H12h2h3h1.2v0.8H17h-3h-2h-0.7C11.4,27.4,11.4,27.1,11.4,26.8z M17,33.1h-1.1v-1.3H17h1.1
		v1.3H17z M18.1,34.4v1.2H17h-1.1v-1.2H17H18.1z M17,30.4h-1.1v-1.3H17h1.1v1.3H17z M14,30.4h-1.1v-1.3H14h1.1v1.3H14z M15.1,31.8
		v1.3H14h-1.1v-1.3H14H15.1z M12.2,33.1c0-0.2-0.1-0.4-0.1-0.6c-0.1-0.2-0.1-0.4-0.2-0.6H12h0.1L12.2,33.1L12.2,33.1z M12.2,30.4H12
		h-0.5c0-0.4-0.1-0.8-0.1-1.2H12h0.1L12.2,30.4L12.2,30.4z M12.9,34.9v-0.5H14h1.1v1.2H14h-0.8C13.1,35.4,13,35.1,12.9,34.9z
		 M41.3,38c-0.6,0.8-1.4,1.7-2.2,2.4c-0.8,0.8-1.8,1.5-2.8,2.1l-0.1,0.1c-0.4,0.2-0.8,0.5-1.3,0.6c-0.5,0.2-0.9,0.4-1.4,0.6
		c-0.8,0.3-1.7,0.5-2.6,0.7s-1.8,0.2-2.8,0.2c-0.9,0-1.9-0.1-2.7-0.2c-0.9-0.1-1.8-0.4-2.6-0.7c-0.5-0.1-0.9-0.3-1.4-0.6
		c-0.4-0.2-0.8-0.4-1.3-0.6c-0.1,0-0.1-0.1-0.1-0.1c-1-0.6-1.9-1.3-2.8-2c-1.2-1-2.1-2.2-3-3.5c-0.1-0.2-0.2-0.4-0.4-0.6H14h3h2.8
		h0.1h1.3h1.4h0.1v0.3h2.6H28h2.8h2.5v-0.3h0.1h1.4h1.3h0.1H39h2.2h1C42,36.9,41.6,37.5,41.3,38z M19.9,24.4H21v0.4h0.2l0,0v7.5l0,0
		H21h-0.4v0.5h0.1V33H21v3h-0.2h-0.1H20h-0.1l0,0h-0.4h-0.7V24h1.1l0,0L19.9,24.4L19.9,24.4z M22.6,29.6h0.8v1.3h-0.8h-1v-1.3H22.6z
		 M21.6,27.6v-1.2h1h0.8v1.2h-0.8H21.6z M22.6,32.1h1.2v-7.3h-1.2h-1.1l0,0h1.1h2.6H28h2.8h1.4v7.5H32l0,0h-1.2h-1.3h-0.2H28h-1.3
		h-0.2h-1.2H24h-0.2L22.6,32.1l-1.1,0.1v-0.1H22.6z M22.6,32.4h2.6H28h2.8h2.6h1.4h0.3v0.1h-0.3h-1.4v0.2h1.4H35v0.2h-0.1h-1.4h-2.6
		H28h-2.7h-2.6h-1.4l0,0v-0.2l0,0h1.4h2.6H28h2.8h2.6v-0.2h-2.6H28h-2.7L22.6,32.4l-1.4,0.1H21v-0.1h0.2H22.6z M33.4,27.6h-0.8v-1.2
		h0.8h1v1.2H33.4z M34.4,29.6v1.3h-1h-0.8v-1.3h0.8H34.4z M33.4,24.8h-1.1l0,0H33.4h1.1l0,0H33.4z M33.4,32.1h1.1v0.1L33.4,32.1
		l-1.1,0.1v-0.1H33.4z M35,32.2L35,32.2h-0.2v-7.5h0.1H35v-0.4h1.1h0.1V24l0,0h1.2v12h-0.6h-0.2h-0.3l0,0h-0.1h-0.7h-0.2H35v-3h0.2
		v-0.3h0.2v-0.5H35z M22.6,36h-1.3v-0.3h1.3h2.6H28h2.8h2.6h1.3V36h-1.3h-0.3v0.3h-2.3H28h-2.7h-2.5V36H22.6z M21.8,35.5v-1.6h0.1
		c0,0,0-0.1,0.1-0.1h0.6h0.6c0.1,0,0.1,0.1,0.1,0.1h0.1v1.6h-0.8H21.8z M24.4,35.5v-1.6h0.1c0,0,0-0.1,0.1-0.1h0.6h0.6
		c0.1,0,0.1,0.1,0.1,0.1H26v1.6h-0.8H24.4z M28.9,33.9v1.6H28h-1v-1.6h0.1c0,0,0-0.1,0.1-0.1H28h0.6c0.2,0,0.2,0.1,0.1,0.1H28.9z
		 M29.9,35.5v-1.6H30c0,0,0-0.1,0.1-0.1h0.7h0.7c0.1,0,0.1,0.1,0.1,0.1h0.1v1.6h-0.9H29.9z M32.6,35.5v-1.6h0.1c0,0,0-0.1,0.1-0.1
		h0.6H34c0.1,0,0.1,0.1,0.1,0.1h0.1v1.6h-0.8H32.6z M34.5,35.5v-1.9h-0.1c-0.1-0.1-0.1-0.2-0.3-0.3v-0.1h-0.7h-0.7v0.1
		c-0.1,0.1-0.2,0.1-0.3,0.3h-0.1v1.9H32v-1.9h-0.1c0-0.1-0.1-0.2-0.3-0.3v-0.1h-0.8H30v0.1c-0.2,0.1-0.3,0.1-0.3,0.3h-0.1v1.9h-0.2
		v-1.9h-0.1c0-0.1-0.1-0.2-0.3-0.3v-0.1h-1h-0.8v0.1c-0.2,0.1-0.3,0.1-0.3,0.3h-0.1v1.9h-0.3v-1.9h-0.1c0-0.1-0.1-0.2-0.3-0.3v-0.1
		h-0.7h-0.7v0.1c-0.2,0.1-0.3,0.1-0.3,0.3h-0.1v1.9H24v-1.9h-0.1c0-0.1-0.1-0.2-0.3-0.3v-0.1h-0.8h-0.7v0.1
		c-0.1,0.1-0.2,0.1-0.3,0.3h-0.1v1.9h-0.2V33h1.3h2.6H28h2.8h2.6h1.3v2.5H34.5z M39,31.8h1.2v1.3H39h-1.1v-1.3H39z M37.9,30.4v-1.3
		H39h1.2v1.3H39H37.9z M39,34.4h1.2v1.2H39h-1.1v-1.2H39z M43.2,34.7c-0.1,0.3-0.3,0.5-0.4,0.8h-1.5h-0.4v-1.2h0.4h1.9V34.7z
		 M43.2,33.1h-1.9h-0.4v-1.3h0.4h1.9V33.1z M43.2,30.4h-1.9h-0.4v-1.3h0.4h1.9V30.4z M44,32.4c-0.1,0.1-0.1,0.3-0.1,0.5v-1H44h0.1
		C44.1,32.1,44.1,32.3,44,32.4z M44.4,30.4h-0.2H44h-0.1v-1.2H44h0.2h0.3C44.5,29.6,44.5,30,44.4,30.4z M44.2,27.6H44h-2.7H39h-1.1
		v-0.8H39h2.2H44h0.2h0.3c0.1,0.3,0.1,0.5,0.1,0.8H44.2z M19.9,13.5c0.4-0.2,0.8-0.4,1.3-0.6c0.5-0.2,0.9-0.4,1.4-0.6
		c0.9-0.3,1.7-0.5,2.6-0.6c0.9-0.2,1.8-0.2,2.7-0.2c1,0,1.9,0.1,2.8,0.2c0.9,0.1,1.8,0.4,2.6,0.6c0.5,0.2,1,0.4,1.4,0.6
		c0.5,0.2,0.8,0.4,1.3,0.6l0.1,0.1c1,0.6,2,1.3,2.8,2.1c0.8,0.7,1.6,1.5,2.2,2.4c1.2,1.6,2.1,3.5,2.7,5.5c0.1,0.3,0.2,0.6,0.2,0.8
		c0.1,0.7,0.2,1.4,0.3,2H44l0,0l0,0h-2.7H39l0,0h-1.1V24h0.3v-0.3h0.3v-0.9h-2.4l0,0H36h-1.3h-1.4v0.5h1.4H36h0.1h2v0.1h-2H36h-1.3
		h-1.4v0.3h1.4H36h0.1h1.7v0.1h-1.7H36l0,0l0,0h-1.2h-1.4v0.1h1.4H36v0.2h-1.2l0,0v0.3h-1.4l0,0h-2.6H28h-2.7h-2.6l0,0h-1.4v-0.3
		l0,0H20v-0.2h1.2h1.4h2.6H28h2.8h2.6v-0.1h-2.6H28h-2.7h-2.6h-1.4H20l0,0h-0.1h-0.1h-1.6v-0.1h1.6h0.1h1.3h1.4h2.6H28h2.8h2.6v-0.3
		h-2.6H28h-2.7h-2.6h-1.4H20h-0.1H18v-0.1h1.9H20h1.3h1.4h2.6H28h2.8h2.6v-0.5h-2.6l0,0h-2.6v-3.6c0,0,0.1-0.1,0.1-0.2
		s-0.1-0.2-0.2-0.2s-0.2,0.1-0.2,0.2s0,0.1,0.1,0.2v3.6h-2.6l0,0h-2.6h-1.4h-1.3H20l0,0h-2.3v0.9h0.4V24h0.3v2.4H17l0,0h-3h-2l0,0
		h-0.6c0.1-1,0.3-2,0.6-2.9c0.4-1.6,1.1-3.1,2-4.5c0.8-1.3,1.8-2.5,3-3.4c0.9-0.8,1.8-1.4,2.8-2C19.8,13.5,19.9,13.5,19.9,13.5z"/>
	<polygon class="st3" points="33.6,36.9 33.4,36.9 33.4,36.9 30.8,36.9 28,36.9 25.2,36.9 22.6,36.9 22.6,36.9 22.4,36.9 22.4,36.7 
		22.3,36.7 22.3,36.9 22.3,37.3 22.4,37.3 22.6,37.3 25.2,37.3 28,37.3 30.8,37.3 33.4,37.3 33.6,37.3 33.7,37.3 33.7,36.9 
		33.7,36.7 33.6,36.7 	"/>
	<polygon class="st3" points="28,36.2 30.8,36.2 32.7,36.2 32.7,35.9 30.8,35.9 28,35.9 25.2,35.9 23.1,35.9 23.1,36.2 25.2,36.2 	
		"/>
	<path class="st3" d="M26.4,32.1v-7.3h-1.2H24v7.3h1.2H26.4z M24.3,26.4h0.9h0.9v1.2h-0.9h-0.9V26.4z M24.3,29.6h0.9h0.9v1.3h-0.9
		h-0.9V29.6z"/>
	<path class="st3" d="M32,32.1v-7.3h-1.2h-1.3v7.3h1.3H32z M29.8,26.4h0.9h0.9v1.2h-0.9h-0.9V26.4z M29.8,29.6h0.9h0.9v1.3h-0.9
		h-0.9V29.6z"/>
	<path class="st3" d="M36.2,32.5h0.7v-0.3h-0.2v-1.6h-0.5l0,0h-0.1h-0.4v1.6h-0.2v0.3h0.6H36.2z M36.2,32.2L36.2,32.2L36.2,32.2
		L36.2,32.2L36.2,32.2z M35.8,30.8H36h0.1l0,0h0.4l0,0v1.4l0,0v-1.4h-0.3h-0.1L35.8,30.8L35.8,30.8z M36,31.2L36,31.2h0.2V32h-0.1
		H36V31.2z"/>
	<path class="st3" d="M36.2,29.5L36.2,29.5h0.7v-0.3h-0.2v-1.6h-0.5l0,0h-0.1h-0.4v1.6h-0.2v0.3H36.2L36.2,29.5z M35.8,27.7H36h0.1
		l0,0h0.4l0,0v1.4l0,0v-1.4h-0.3l0,0l0,0h-0.1H35.8L35.8,27.7z M36,28.2L36,28.2h0.2V29h-0.1H36V28.2z"/>
	<path class="st3" d="M36.2,26.4L36.2,26.4h0.7v-0.3h-0.2v-1.6h-0.5l0,0h-0.1h-0.4v1.6h-0.2v0.3H36.2L36.2,26.4z M35.8,24.7H36h0.1
		l0,0h0.4l0,0v1.4l0,0v-1.4h-0.3l0,0h-0.1H35.8L35.8,24.7z M36,25.1L36,25.1h0.2v0.8h-0.1H36V25.1z"/>
	<path class="st3" d="M29.3,32.1v-7.3H28h-1.3v7.3H28H29.3z M27,26.4h1h1v1.2h-1h-1V26.4z M27,29.6h1h1v1.3h-1h-1V29.6z"/>
	<path class="st3" d="M19.3,24.5v1.6h-0.2v0.3h0.7h0.1h0.6v-0.3h-0.2v-1.6h-0.4h-0.1H19.3z M20,25.9L20,25.9h-0.2v-0.8h0.1H20V25.9z
		 M20.2,24.7L20.2,24.7H20h-0.1h-0.3v1.4l0,0v-1.4l0,0H20h0.1H20.2z"/>
	<path class="st3" d="M20.3,33.7h-0.4h-0.1h-0.5v1.6h-0.2v0.3h0.7h0.1h0.6v-0.3h-0.2V33.7z M20,35.1L20,35.1h-0.2v-0.8h0.1H20V35.1z
		 M20.2,33.8H20h-0.1h-0.3v1.4l0,0v-1.4l0,0H20h0.1H20.2L20.2,33.8z"/>
	<path class="st3" d="M20.3,30.6h-0.4h-0.1h-0.5v1.6h-0.2v0.3h0.7h0.1h0.6v-0.3h-0.2V30.6z M19.9,32.2h-0.1l0,0H19.9L19.9,32.2z
		 M20,32.1L20,32.1h-0.2v-0.8h0.1H20V32.1z M20.2,30.8H20h-0.1h-0.3v1.4l0,0v-1.4l0,0H20h0.1L20.2,30.8L20.2,30.8z"/>
	<path class="st3" d="M36.2,35.6h0.7v-0.3h-0.2v-1.6h-0.5h-0.1h-0.4v1.6h-0.2v0.3h0.6H36.2z M35.8,33.8H36h0.1h0.4l0,0v1.4l0,0v-1.4
		h-0.3h-0.1H35.8L35.8,33.8z M36,34.3L36,34.3h0.2v0.8h-0.1H36V34.3z"/>
	<path class="st3" d="M20.3,27.6h-0.4h-0.1h-0.5v1.6h-0.2v0.3h0.7h0.1h0.6v-0.3h-0.2V27.6z M20,29L20,29h-0.2v-0.8h0.1H20V29z
		 M20.2,27.7H20h-0.1h-0.3v1.4l0,0v-1.4l0,0H20h0.1H20.2L20.2,27.7z"/>
	<path class="st3" d="M30.3,39.7c-0.2-0.1-0.5-0.2-0.8-0.2c-0.1,0-0.2,0-0.3,0c-0.1,0-0.2,0.1-0.3,0.1l0.2-0.6h1.2v-0.4h-1.5
		l-0.3,1.3l0.4,0.1c0-0.1,0.1-0.1,0.2-0.2c0.1,0,0.2,0,0.3,0c0.2,0,0.4,0,0.6,0.1c0.1,0.1,0.2,0.2,0.2,0.4s-0.1,0.3-0.2,0.4
		c-0.1,0.1-0.3,0.1-0.5,0.1s-0.3,0-0.5-0.1c-0.1-0.1-0.2-0.2-0.2-0.3h-0.5c0,0.2,0.1,0.5,0.3,0.6c0.2,0.1,0.5,0.2,0.8,0.2
		s0.7-0.1,0.9-0.2c0.2-0.2,0.3-0.4,0.3-0.6C30.6,40.1,30.5,39.9,30.3,39.7z"/>
	<polygon class="st3" points="22.9,39 23.4,39 23.4,41.1 23.9,41.1 23.9,38.7 22.9,38.7 	"/>
	<path class="st3" d="M27.4,38.9c-0.1-0.1-0.2-0.1-0.4-0.2c-0.1,0-0.3-0.1-0.4-0.1l0,0c-0.2,0-0.4,0-0.6,0.1c-0.2,0-0.3,0.2-0.4,0.3
		c0,0.1-0.1,0.1-0.2,0.2v0.2c0,0.2,0.1,0.4,0.3,0.6c0.2,0.1,0.5,0.2,0.7,0.2h0.1c0,0,0,0,0.1,0l-0.1,0.2l-0.7,0.7h0.6l0.1-0.1
		l0.6-0.7l0,0c0.3-0.3,0.5-0.6,0.5-0.8c0-0.1,0-0.2-0.1-0.3C27.6,39,27.5,39,27.4,38.9z M27,39.9C26.9,40,26.8,40,26.6,40l0,0
		c-0.2,0-0.3,0-0.5-0.1c-0.1-0.1-0.2-0.2-0.2-0.4c0-0.1,0-0.3,0.2-0.4c0.1-0.1,0.3-0.1,0.5-0.1s0.3,0,0.5,0.1
		c0.1,0.1,0.2,0.2,0.2,0.4C27.2,39.6,27.2,39.8,27,39.9z"/>
	<path class="st3" d="M32.9,39.7c0.1-0.1,0.2-0.1,0.2-0.2c0-0.1,0.1-0.1,0.1-0.3c0-0.1-0.1-0.3-0.2-0.4c-0.2-0.1-0.4-0.2-0.6-0.2
		c-0.2,0-0.5,0.1-0.6,0.2c-0.1,0.1-0.2,0.3-0.2,0.5H32c0-0.1,0-0.2,0.1-0.2c0,0,0.1-0.1,0.3-0.1c0.1,0,0.2,0,0.3,0.1
		c0.1,0,0.1,0.1,0.1,0.2c0,0.1,0,0.2-0.1,0.2c0,0.1-0.2,0.1-0.4,0.1l0,0l0,0V40l0,0h0.1c0.2,0,0.4,0,0.5,0.1s0.2,0.2,0.2,0.4
		c0,0.1,0,0.2-0.2,0.3s-0.3,0.1-0.5,0.1c-0.1,0-0.3,0-0.4-0.1s-0.2-0.2-0.2-0.3h-0.4c0,0.2,0.1,0.5,0.3,0.6c0.2,0.1,0.5,0.2,0.8,0.2
		s0.6,0,0.7-0.2c0.2-0.1,0.3-0.4,0.3-0.6c0-0.1,0-0.3-0.1-0.4C33.2,39.8,33.1,39.7,32.9,39.7z"/>
	<path class="st3" d="M6.5,26.2L6.5,26.2l0.3-1.9l-0.5-0.1l-0.2,1.4c-0.2-0.2-0.4-0.3-0.5-0.5s-0.1-0.4-0.1-0.6
		c0-0.1,0.1-0.3,0.2-0.4s0.2-0.2,0.3-0.3c0.1-0.1,0.3-0.1,0.4-0.2c0.1,0,0.3,0,0.5,0c0.1,0,0.3,0.1,0.4,0.2s0.2,0.2,0.3,0.3
		c0.1,0.1,0.1,0.2,0.2,0.4c0,0.1,0,0.3,0,0.4c0,0.2-0.1,0.3-0.2,0.5c-0.1,0.1-0.2,0.2-0.3,0.3l0,0l-0.1,0.6l0,0l0,0
		c0.3-0.1,0.5-0.2,0.7-0.4c0.2-0.2,0.3-0.5,0.3-0.8c0-0.2,0-0.4,0-0.6s-0.1-0.4-0.3-0.6c-0.1-0.2-0.3-0.3-0.5-0.4S7,23.3,6.8,23.3
		s-0.4,0-0.6,0s-0.4,0.1-0.5,0.2c-0.2,0.1-0.4,0.3-0.5,0.5S5,24.4,5,24.6c-0.1,0.4,0,0.8,0.3,1.2C5.7,25.9,6,26.1,6.5,26.2z"/>
	<path class="st3" d="M5.3,28.6c0.1,0.1,0.2,0.1,0.3,0.1c0.1,0,0.3,0,0.5,0h2l0,0v-0.5l0,0h-2c-0.3,0-0.5,0-0.6-0.1
		s-0.2-0.2-0.2-0.4c0-0.2,0.1-0.3,0.2-0.4s0.3-0.1,0.6-0.1h2l0,0v-0.5l0,0h-2c-0.2,0-0.4,0-0.5,0s-0.2,0.1-0.3,0.1
		C5.2,27,5,27.1,5,27.2c-0.1,0.1-0.1,0.3-0.1,0.5s0,0.3,0.1,0.5C5,28.4,5.1,28.5,5.3,28.6z"/>
	<path class="st3" d="M8.2,30.5v-0.4L5,29.2l0,0v0.5L5.9,30L6,31.1l-0.9,0.4L5.2,32L8.2,30.5L8.2,30.5z M7.6,30.3l-1.1,0.5L6.4,30
		L7.6,30.3z"/>
	<polygon class="st3" points="8.9,34.2 8.8,33.7 6.5,34.3 8.5,32.3 8.5,32.3 8.4,31.8 5.3,32.5 5.3,32.5 5.4,33 7.8,32.4 5.8,34.5 
		5.8,34.5 5.9,34.9 	"/>
	<path class="st3" d="M8.7,38.1L8.7,38.1L8,36.3l0,0l-0.4,0.2l0,0l0.5,1.3c-0.3,0-0.5-0.1-0.7-0.2C7.2,37.4,7.1,37.2,7,37
		c-0.1-0.1-0.1-0.3-0.1-0.4c0-0.2,0-0.3,0.1-0.4c0.1-0.1,0.1-0.2,0.3-0.3c0.1-0.1,0.2-0.2,0.4-0.2c0.1-0.1,0.3-0.1,0.4-0.1
		c0.2,0,0.3,0,0.4,0.1c0.1,0.1,0.3,0.1,0.3,0.2c0.2,0,0.3,0.1,0.4,0.3c0.1,0.2,0.1,0.3,0.1,0.5S9.2,37,9.2,37.1l0,0l0.2,0.5l0,0
		c0.2-0.2,0.3-0.5,0.4-0.7c0.1-0.3,0-0.6-0.1-0.9c-0.1-0.2-0.2-0.4-0.3-0.5s-0.3-0.3-0.5-0.4C8.6,35,8.4,35,8.2,35s-0.4,0-0.6,0.1
		s-0.4,0.2-0.5,0.3c-0.2,0.1-0.3,0.3-0.4,0.5s-0.2,0.4-0.2,0.6c0,0.2,0,0.4,0.1,0.7c0.2,0.4,0.4,0.7,0.8,0.9
		c0.2,0.1,0.4,0.1,0.6,0.1C8.2,38.2,8.5,38.1,8.7,38.1z"/>
	<polygon class="st3" points="8.8,40.6 8.1,39.4 10.8,39.5 10.8,39.5 11.1,39.3 11.1,39.3 10.3,37.7 10.3,37.7 9.9,37.9 9.9,37.9 
		10.5,39.1 7.9,38.9 7.9,38.9 7.5,39.1 7.5,39.1 8.4,40.8 8.4,40.8 	"/>
	<polygon class="st3" points="12.6,41.3 12.3,41 11.3,41.8 10.5,40.8 11.6,40 11.6,40 11.3,39.6 8.8,41.5 8.8,41.5 9.1,41.8 
		10.2,41 10.9,42 9.8,42.8 9.8,42.8 10.1,43.2 	"/>
	<path class="st3" d="M14.6,44.1c0-0.2,0.1-0.4,0-0.6c0-0.2-0.1-0.4-0.2-0.6c-0.1-0.2-0.2-0.3-0.4-0.5c-0.2-0.1-0.4-0.2-0.6-0.3
		c-0.2,0-0.4-0.1-0.6,0c-0.2,0-0.4,0.1-0.6,0.2c-0.2,0.1-0.3,0.3-0.5,0.4c-0.1,0.2-0.2,0.4-0.3,0.6c-0.1,0.2-0.1,0.4-0.1,0.6
		c0,0.2,0.1,0.5,0.2,0.6c0.1,0.2,0.3,0.4,0.4,0.5c0.2,0.1,0.4,0.2,0.6,0.3c0.1,0,0.2,0,0.3,0s0.2,0,0.3,0c0.2,0,0.4-0.1,0.5-0.2
		c0.2-0.1,0.3-0.3,0.4-0.4C14.5,44.5,14.6,44.3,14.6,44.1z M14.1,44c0,0.1-0.1,0.3-0.2,0.4c-0.2,0.3-0.5,0.4-0.8,0.5s-0.6,0-0.8-0.2
		c-0.1-0.1-0.2-0.2-0.3-0.3s-0.1-0.3-0.1-0.4c0-0.1,0-0.3,0-0.4c0-0.1,0.1-0.3,0.2-0.4c0.1-0.1,0.2-0.2,0.3-0.3s0.3-0.1,0.4-0.2
		c0.1,0,0.1,0,0.2,0c0.1,0,0.2,0,0.2,0c0.1,0,0.3,0.1,0.4,0.2c0.1,0.1,0.2,0.2,0.3,0.3s0.1,0.3,0.1,0.4C14.2,43.7,14.2,43.9,14.1,44
		z"/>
	<path class="st3" d="M17.3,44.7l-0.4-0.2l0,0l-1.1,1.7c-0.1,0.2-0.3,0.4-0.4,0.4c-0.1,0.1-0.3,0-0.4-0.1c-0.2-0.1-0.3-0.2-0.3-0.4
		c0-0.1,0.1-0.3,0.2-0.6l1-1.7l0,0l-0.4-0.2l0,0l-1,1.7c-0.1,0.2-0.2,0.3-0.2,0.4c0,0.1,0,0.2,0,0.3c0,0.2,0.1,0.3,0.1,0.5
		c0.1,0.1,0.2,0.2,0.4,0.4c0.2,0.1,0.3,0.2,0.5,0.2c0,0,0,0,0.1,0s0.3,0,0.4-0.1c0.1,0,0.2-0.1,0.3-0.2c0.1-0.1,0.2-0.2,0.3-0.4
		L17.3,44.7L17.3,44.7z"/>
	<path class="st3" d="M19.6,45.9l-2.4,2.3l0,0l0.4,0.2l0,0l0.7-0.7l1.1,0.5l-0.1,1l0,0l0.5,0.2l0.2-3.3l0,0L19.6,45.9L19.6,45.9z
		 M18.7,47.4l0.9-0.9l-0.1,1.2L18.7,47.4z"/>
	<path class="st3" d="M22.6,49.5L22.6,49.5c-0.1,0.1-0.3,0.2-0.4,0.2c-0.2,0-0.3,0-0.5,0c-0.1,0-0.3-0.1-0.4-0.2
		c-0.1-0.1-0.2-0.2-0.3-0.4c0-0.2,0-0.3,0-0.4c0-0.2,0-0.3,0.1-0.5c0-0.1,0.1-0.3,0.2-0.4c0.1-0.1,0.2-0.2,0.3-0.3
		c0.1-0.1,0.3-0.1,0.4-0.1s0.3,0,0.4,0c0.2,0.1,0.3,0.1,0.4,0.2c0.1,0.1,0.2,0.2,0.3,0.4l0,0l0.5,0.2l0,0l0,0c0-0.3-0.1-0.6-0.3-0.8
		c-0.2-0.2-0.4-0.4-0.7-0.5c-0.2-0.1-0.4-0.1-0.6-0.1s-0.4,0.1-0.6,0.2c-0.2,0.1-0.4,0.2-0.5,0.4s-0.2,0.3-0.3,0.6
		c-0.1,0.2-0.1,0.4-0.1,0.6c0,0.2,0.1,0.4,0.1,0.6c0.1,0.2,0.2,0.4,0.4,0.5c0.2,0.1,0.4,0.3,0.6,0.3c0.2,0.1,0.4,0.1,0.5,0.1
		s0.2,0,0.3,0c0.3-0.1,0.5-0.2,0.7-0.4l0,0L22.6,49.5L22.6,49.5z"/>
	<path class="st3" d="M25.5,47.7l-0.4-0.1l0,0l-1.7,2.9l0.5,0.1l0,0l0.5-0.8l1.2,0.2l0.2,0.9l0,0l0.5,0.1l0,0L25.5,47.7L25.5,47.7z
		 M25.4,49.5l-0.8-0.1l0.6-1.1L25.4,49.5z"/>
	<path class="st3" d="M27.8,48h-1l0,0l-0.1,3.1l0,0h0.9h0.1c0.2,0,0.4,0,0.5-0.1c0.2,0,0.3-0.1,0.4-0.2c0.2-0.1,0.4-0.3,0.5-0.5
		s0.2-0.5,0.2-0.7c0-0.5-0.1-0.9-0.4-1.1C28.7,48.1,28.3,48,27.8,48z M27.3,48.4h0.5c0.4,0,0.7,0.1,0.9,0.3c0.2,0.2,0.3,0.5,0.3,0.8
		s-0.1,0.6-0.3,0.8c-0.2,0.2-0.5,0.3-0.8,0.3l0,0h-0.5L27.3,48.4z"/>
	<polygon class="st3" points="30.5,50.6 30.4,49.7 31.6,49.5 31.5,49.1 30.4,49.2 30.3,48.3 31.4,48.2 31.4,47.8 29.8,48 29.7,48 
		30.1,51.1 30.1,51.1 31.7,50.9 31.7,50.9 31.7,50.4 	"/>
	<polygon class="st3" points="34.9,46.9 34.2,47 34.2,47.1 34,49.6 32.5,47.5 32.5,47.5 31.8,47.7 31.8,47.7 32.7,50.7 32.7,50.7 
		33.1,50.6 33.1,50.6 32.4,48.1 34,50.3 34,50.4 34.4,50.3 34.4,50.3 34.6,47.4 35.3,50 35.3,50 35.7,49.9 	"/>
	<polygon class="st3" points="37.1,45.8 37.1,45.8 36.6,46 36.6,46 36.6,47.6 35.4,46.6 35.4,46.6 34.9,46.8 36.6,48.2 37.1,49.2 
		37.1,49.2 37.5,49 37.5,49 37.1,48 	"/>
	<path class="st3" d="M41.7,44.5c-0.1-0.2-0.3-0.3-0.5-0.4c-0.2-0.1-0.4-0.2-0.6-0.2c-0.2,0-0.4,0-0.6,0c-0.2,0.1-0.4,0.1-0.6,0.3
		c-0.2,0.1-0.3,0.3-0.4,0.5c-0.1,0.2-0.2,0.4-0.2,0.6c0,0.2,0,0.4,0,0.6c0.1,0.2,0.1,0.4,0.3,0.6c0.1,0.2,0.3,0.3,0.4,0.4
		c0.2,0.1,0.4,0.2,0.5,0.2s0.2,0,0.3,0s0.2,0,0.3,0c0.2,0,0.4-0.1,0.6-0.3c0.2-0.1,0.3-0.3,0.4-0.5c0.1-0.2,0.2-0.4,0.2-0.6
		c0-0.2,0-0.4-0.1-0.6C41.9,44.8,41.8,44.7,41.7,44.5z M41.5,45.6c0,0.3-0.2,0.6-0.4,0.8c-0.1,0.1-0.2,0.1-0.4,0.2
		c-0.1,0-0.3,0-0.4,0c-0.1,0-0.3-0.1-0.4-0.2c-0.1-0.1-0.2-0.2-0.3-0.3s-0.2-0.3-0.2-0.4c0-0.1,0-0.3,0-0.5c0-0.1,0.1-0.3,0.1-0.4
		c0.1-0.1,0.2-0.2,0.3-0.3s0.3-0.2,0.4-0.2c0.1,0,0.2,0,0.2,0c0.1,0,0.2,0,0.2,0c0.1,0,0.3,0.1,0.4,0.1c0.1,0.1,0.2,0.2,0.3,0.3
		C41.5,45,41.6,45.3,41.5,45.6z"/>
	<polygon class="st3" points="43.3,43.2 43.3,43.1 43,42.8 43,42.8 42.2,43.6 41.6,43 42.4,42.2 42.4,42.2 42.1,41.9 42.1,41.9 
		41,43 41,43 43.1,45.2 43.2,45.2 43.5,44.9 43.5,44.9 42.5,43.9 	"/>
	<polygon class="st3" points="45.6,40.3 45.6,40.3 45.3,40.1 45.3,40 44.6,40.9 43.9,40.4 44.5,39.5 44.5,39.5 44.2,39.3 44.2,39.2 
		43.3,40.5 43.3,40.5 45.8,42.4 45.8,42.4 46,42 46.1,42 45,41.2 	"/>
	<polygon class="st3" points="44.7,38.4 44.5,38.8 44.5,38.8 47.1,40.4 47.1,40.4 47.4,40.1 47.4,40 44.8,38.4 	"/>
	<polygon class="st3" points="46.2,35.8 46,36.2 46,36.2 48,37.2 45.3,37.5 45.3,37.5 45.1,37.9 45,37.9 47.8,39.4 47.8,39.4 
		48,38.9 45.9,37.9 48.7,37.6 48.7,37.6 48.9,37.2 48.9,37.2 	"/>
	<polygon class="st3" points="49,35.8 48.2,35.5 48.6,34.4 48.6,34.4 48.2,34.2 48.2,34.2 47.8,35.3 46.9,35 47.3,33.9 47.3,33.9 
		46.9,33.8 46.9,33.8 46.4,35.3 46.4,35.3 49.3,36.4 49.3,36.4 49.9,34.9 49.9,34.9 49.4,34.7 	"/>
	<path class="st3" d="M47.7,30.8l-0.1,0.4l2.8,1.8l0,0l0.1-0.5l0,0L49.7,32l0.2-1.2l0.9-0.2l0,0l0.1-0.5L47.7,30.8L47.7,30.8z
		 M49.5,30.9l-0.2,0.8l-1-0.6L49.5,30.9z"/>
	<path class="st3" d="M49.9,28.4c0-0.3-0.1-0.5-0.2-0.6c-0.2-0.2-0.4-0.3-0.6-0.3c-0.3,0-0.6,0.1-0.8,0.2c-0.2,0.2-0.3,0.5-0.3,0.8
		l-0.1,0.9l0,0l3.1,0.2l0,0v-0.5l0,0L49.6,29l1.5-0.9l0,0v-0.6l0,0L49.9,28.4z M49.1,27.9c0.2,0,0.3,0.1,0.4,0.3
		c0.1,0.2,0.1,0.4,0.1,0.7v0.2L48.4,29v-0.3c0-0.3,0.1-0.5,0.2-0.6C48.7,28,48.9,27.9,49.1,27.9z"/>
	<polygon class="st3" points="48.4,25.6 48,25.6 48.1,27.2 48.1,27.2 48.5,27.2 48.5,26.6 51.2,26.5 51.2,26.5 51.2,26.1 48.5,26.2 
			"/>
	<path class="st3" d="M49.1,24.1c0,0.1,0,0.1,0,0.2c0,0.2-0.1,0.3-0.1,0.4l-0.1,0.1h-0.1c-0.1,0-0.2,0-0.3-0.1s-0.1-0.2-0.2-0.3
		c0-0.1,0-0.2,0.1-0.3c0.1-0.1,0.2-0.1,0.3-0.2l0,0l-0.1-0.4l0,0c-0.3,0.1-0.4,0.2-0.6,0.3c-0.1,0.2-0.2,0.4-0.1,0.6
		c0,0.3,0.2,0.5,0.3,0.6s0.3,0.2,0.5,0.2c0.1,0,0.1,0,0.2,0c0.1,0,0.2,0,0.2-0.1c0.1,0,0.1-0.1,0.2-0.2c0.1-0.1,0.2-0.3,0.3-0.6
		c0,0,0,0,0-0.1c0-0.2,0.1-0.4,0.1-0.5c0.1-0.1,0.2-0.1,0.3-0.1c0.2,0,0.3,0,0.4,0.1c0.1,0.1,0.2,0.2,0.2,0.3c0,0.1,0,0.3-0.1,0.4
		s-0.2,0.2-0.4,0.2l0,0l0.1,0.4l0,0l0,0c0.3,0,0.5-0.2,0.7-0.4c0.2-0.2,0.2-0.4,0.2-0.7c0-0.3-0.2-0.5-0.4-0.6s-0.5-0.2-0.8-0.2
		c-0.2,0-0.4,0.1-0.5,0.2C49.3,23.7,49.2,23.9,49.1,24.1z"/>
</g>
</svg>
